<svg xmlns="http://www.w3.org/2000/svg" width="1240" height="1240"><path d="M850 207.5c0 1.145-1.244 1.497-5.25 1.487-11.279-.029-33.75 2.363-33.75 3.593 0 .789-2.79 1.459-8 1.92-4.4.389-8 1.111-8 1.604 0 .493-1.538.896-3.417.896-1.879 0-3.566.438-3.75.973-.183.534-3.596 1.274-7.583 1.643s-7.25 1.029-7.25 1.466c0 .438-2.025 1.099-4.5 1.47-2.845.427-4.5 1.185-4.5 2.062 0 .82-1.044 1.386-2.557 1.386-5.553 0-16.443 2.33-16.443 3.518 0 .714-2.083 1.501-5 1.888-2.75.364-5 1.097-5 1.628 0 .531-.9.966-2 .966s-2 .45-2 1-1.125 1-2.5 1-2.5.392-2.5.871-2.25 1.17-5 1.535c-3.027.401-5 1.164-5 1.933 0 .781-3.273 1.987-8.5 3.132-4.989 1.093-8.5 2.365-8.5 3.079 0 1.302-3.08 2.414-6.75 2.436-1.237.008-2.25.464-2.25 1.014s-.9 1-2 1-2 .45-2 1-.9 1-2 1-2 .445-2 .988c0 .544-1.8 1.276-4 1.628-2.2.352-4 1.185-4 1.852s-2.475 1.806-5.5 2.532-5.5 1.872-5.5 2.548c0 .676-1.575 1.525-3.5 1.886s-3.5 1.047-3.5 1.523c0 .477-1.8 1.171-4 1.543-2.2.372-4 1.086-4 1.588s-.675.912-1.5.912-1.5.41-1.5.912-1.756 1.209-3.902 1.571c-2.615.442-4.063 1.274-4.389 2.522-.313 1.195-1.782 2.106-4.098 2.54-1.986.373-3.611 1.25-3.611 1.95 0 .699-1.013 1.445-2.25 1.657-3.56.611-6.75-.169-6.75-1.65 0-.831-2.136-1.837-5.5-2.589-3.203-.717-5.5-1.772-5.5-2.527 0-.712-1.575-1.591-3.5-1.952s-3.5-1.057-3.5-1.545c0-.489-.675-.889-1.5-.889s-1.5-.41-1.5-.912-1.8-1.216-4-1.588c-2.2-.372-4-1.081-4-1.576 0-.495-1.8-1.188-4-1.54-2.2-.352-4-1.185-4-1.853 0-.667-2.475-1.767-5.5-2.444-3.254-.728-5.5-1.767-5.5-2.545 0-.792-1.791-1.583-4.5-1.99-2.475-.371-4.5-1.097-4.5-1.613 0-.517-1.35-.939-3-.939s-3-.45-3-1-.675-1-1.5-1-1.5-.399-1.5-.886c0-.488-2.025-1.191-4.5-1.562-2.935-.44-4.5-1.175-4.5-2.113 0-.792-.788-1.431-1.75-1.422-3.923.039-17.25-3.528-17.25-4.616 0-.669-2.357-1.465-5.5-1.858-3.025-.378-5.5-1.105-5.5-1.615s-1.35-.928-3-.928-3-.45-3-1-1.125-1-2.5-1-2.5-.428-2.5-.95c0-.523-2.7-1.256-6-1.63-3.833-.433-6-1.138-6-1.95 0-.87-3.322-1.666-10.5-2.517-7.192-.852-10.5-1.646-10.5-2.519 0-.831-2.263-1.517-6.5-1.971-3.575-.383-6.5-1.04-6.5-1.461 0-.42-4.275-1.085-9.5-1.476-5.225-.392-9.5-1.121-9.5-1.619 0-.499-2.887-.907-6.417-.907-3.529 0-6.567-.453-6.752-1.006-.196-.589-7.496-1.277-17.583-1.658-13.443-.507-17.248-.947-17.248-1.993 0-1.046-2.544-1.343-11.5-1.343-8.959 0-11.5.297-11.5 1.343 0 1.043-3.631 1.487-16.244 1.983-9.545.376-16.384 1.059-16.584 1.657-.186.559-2.101 1.017-4.255 1.017-2.155 0-3.917.386-3.917.858 0 .471-2.787 1.148-6.194 1.504-3.407.357-6.444 1.041-6.75 1.522-.306.481-2.919 1.196-5.806 1.589-3.269.445-5.25 1.204-5.25 2.012 0 .798-2.503 1.795-6.5 2.59-4.128.82-6.5 1.782-6.5 2.633 0 .738-1.35 1.612-3 1.942-1.65.33-3 .994-3 1.475 0 .481-.801.875-1.779.875-.979 0-2.428.9-3.221 2-.793 1.1-2.284 2-3.314 2-1.032 0-2.108.898-2.396 2-.288 1.1-1.285 2-2.216 2-.93 0-2.565.661-3.633 1.468-1.067.808-2.729 1.483-3.691 1.5-.962.018-1.75.482-1.75 1.032 0 1.212-3.666 5-4.839 5-.462 0-1.353 1.125-1.979 2.5-.627 1.375-1.824 2.5-2.661 2.5-.836 0-1.521.685-1.521 1.521 0 .837-1.125 2.034-2.5 2.661-1.375.626-2.5 1.694-2.5 2.372 0 .677-.675 1.491-1.5 1.808-.825.316-1.5 1.264-1.5 2.107 0 .842-.645 1.531-1.433 1.531s-1.718.9-2.067 2c-.349 1.1-1.054 2-1.567 2-.513 0-.933.942-.933 2.094 0 1.252-.803 2.303-2 2.616-1.1.288-2 1.344-2 2.348 0 1.003-.45 2.102-1 2.442-.55.34-1 1.491-1 2.559s-.675 1.941-1.5 1.941-1.5.627-1.5 1.393-.675 1.652-1.5 1.969c-.825.316-1.5 1.489-1.5 2.607 0 1.117-.616 2.031-1.37 2.031-.876 0-1.795 2.161-2.55 6-.765 3.886-1.67 6-2.569 6-.879 0-1.636 1.651-2.063 4.5-.371 2.475-1.074 4.5-1.562 4.5-.487 0-.886 1.125-.886 2.5s-.45 2.5-1 2.5-1 1.35-1 3-.418 3-.928 3-1.237 2.475-1.615 5.5c-.432 3.452-1.165 5.5-1.971 5.5-.855 0-1.518 2.335-1.986 7-.387 3.85-1.064 7-1.505 7-.442 0-1.125 4.725-1.518 10.5-.507 7.433-1.086 10.5-1.983 10.5-1.81 0-2.902 25.581-1.982 46.427.534 12.105 1.064 16.573 1.968 16.573.876 0 1.445 3.569 1.952 12.237.394 6.73 1.092 12.469 1.552 12.753.459.284 1.159 4.228 1.555 8.763.497 5.7 1.118 8.247 2.011 8.247.851 0 1.528 2.215 1.987 6.5.383 3.575 1.094 6.5 1.579 6.5.486 0 .884 1.8.884 4s.45 4 1 4 1 .9 1 2 .45 2 1 2 1.005 1.238 1.011 2.75c.021 5.14 1.247 10.25 2.459 10.25.705 0 1.761 2.923 2.53 7 .78 4.136 1.822 7 2.545 7 .734 0 1.5 2.202 1.912 5.5.378 3.025 1.105 5.5 1.615 5.5s.928 1.125.928 2.5c0 1.45.575 2.5 1.37 2.5.876 0 1.795 2.161 2.55 6 .765 3.886 1.67 6 2.569 6 .879 0 1.636 1.651 2.063 4.5.371 2.475 1.054 4.5 1.516 4.5.463 0 1.137 1.575 1.498 3.5.376 2.005 1.25 3.5 2.045 3.5.764 0 1.389.868 1.389 1.929 0 1.06.675 2.603 1.5 3.428.825.825 1.5 1.982 1.5 2.572 0 .754 27.208 1.071 91.875 1.071 50.531 0 93.268.279 94.97.619 1.784.357 3.349 1.416 3.693 2.5.328 1.035 1.236 1.881 2.018 1.881 2.002 0 5.444 3.147 5.444 4.978 0 .844 1.35 2.131 3 2.862 1.65.73 3 2.091 3 3.023 0 .933.874 2.325 1.942 3.095 1.069.77 2.226 3.076 2.572 5.123.424 2.51 1.257 3.887 2.557 4.227 1.164.305 1.929 1.373 1.929 2.692 0 1.346.769 2.388 2 2.71 1.1.288 2 1.146 2 1.907 0 .76.441 1.383.981 1.383.539 0 1.263 1.125 1.608 2.5.345 1.375 1.182 2.5 1.859 2.5.678 0 1.826 1.8 2.552 4s1.698 4 2.16 4c.462 0 .84.482.84 1.071 0 1.088 2.435 3.929 3.367 3.929.281 0 .814-2.025 1.185-4.5.393-2.617 1.207-4.5 1.945-4.5.825 0 1.514-2.278 1.966-6.5.383-3.575 1.11-6.5 1.617-6.5.506 0 .92-1.8.92-4s.45-4 1-4 1-1.575 1-3.5.418-3.5.928-3.5 1.237-2.475 1.615-5.5c.423-3.382 1.171-5.5 1.943-5.5.801 0 1.503-2.264 1.938-6.25 1.245-11.406 1.791-13.75 3.204-13.75.901 0 1.372-1.2 1.372-3.5 0-1.925.414-3.5.92-3.5.507 0 1.234-2.925 1.617-6.5.432-4.037 1.155-6.5 1.906-6.5 1.131 0 3.58-12.201 3.564-17.75-.004-1.237.443-2.25.993-2.25s1-1.35 1-3 .45-3 1-3 1-1.575 1-3.5.428-3.5.95-3.5c.523 0 1.256-2.7 1.63-6 .445-3.935 1.129-6 1.989-6 .89 0 1.531-2.246 2-7 .379-3.85 1.081-7 1.56-7 .479 0 .871-1.125.871-2.5s.45-2.5 1-2.5 1-1.575 1-3.5.392-3.5.872-3.5 1.16-1.8 1.512-4c.405-2.531 1.172-4 2.088-4 .823 0 1.965-1.727 2.646-4 .943-3.148 1.685-4 3.481-4 1.256 0 2.561-.45 2.901-1 .34-.55 1.716-1 3.059-1 1.503 0 2.441-.576 2.441-1.5 0-1.222 1.667-1.5 9-1.5s9 .278 9 1.5c0 .825.563 1.503 1.25 1.506 3.63.016 8.573 2.207 9.044 4.01.285 1.091 1.207 1.984 2.048 1.984s2.098 1.575 2.794 3.5c.696 1.925 1.625 3.5 2.065 3.5.439 0 .799 1.35.799 3s.45 3 1 3 1 1.8 1 4 .397 4 .883 4c.485 0 1.198 3.375 1.585 7.5.476 5.079 1.118 7.5 1.988 7.5.882 0 1.505 2.511 1.984 8 .383 4.4 1.117 8 1.629 8s.931 2.025.931 4.5.45 4.5 1 4.5 1 1.8 1 4 .397 4 .883 4c.485 0 1.198 3.375 1.585 7.5.494 5.27 1.103 7.5 2.049 7.5.957 0 1.547 2.308 2.043 8 .384 4.4 1.09 8 1.569 8 .479 0 .871 1.575.871 3.5s.45 3.5 1 3.5 1 2.025 1 4.5.404 4.5.899 4.5c.494 0 1.214 3.15 1.601 7 .462 4.6 1.136 7 1.966 7 .879 0 1.66 3.792 2.573 12.5.722 6.875 1.683 12.5 2.136 12.5.454 0 .825 1.575.825 3.5s.45 3.5 1 3.5 1 2.025 1 4.5.412 4.5.915 4.5c.503 0 1.231 3.375 1.617 7.5.473 5.046 1.12 7.5 1.978 7.5 1.505 0 2.49-2.209 2.49-5.582 0-1.33.45-2.418 1-2.418s1-1.35 1-3 .45-3 1-3 1-1.125 1-2.5.406-2.5.902-2.5 1.215-2.7 1.598-6c.448-3.864 1.155-6 1.983-6 .81 0 1.541-2.039 1.974-5.5.378-3.025 1.105-5.5 1.615-5.5s.928-1.35.928-3 .45-3 1-3 1-1.8 1-4 .36-4 .8-4c.91 0 3.2-10.242 3.2-14.31 0-1.664.545-2.69 1.428-2.69.981 0 1.643-1.722 2.115-5.5.378-3.025 1.086-5.5 1.572-5.5.487 0 .885-1.35.885-3s.45-3 1-3 1-1.125 1-2.5.392-2.5.871-2.5 1.176-2.7 1.549-6c.458-4.04 1.121-6 2.031-6 .909 0 1.581-1.968 2.049-6 .383-3.3 1.102-6 1.598-6s.902-1.125.902-2.5.45-2.5 1-2.5 1-1.35 1-3 .406-3 .902-3 1.215-2.7 1.598-6c.448-3.864 1.155-6 1.983-6 .81 0 1.541-2.039 1.974-5.5.378-3.025 1.105-5.5 1.615-5.5s.928-1.35.928-3 .45-3 1-3 1-1.35 1-3 .404-3 .897-3 1.439-3.825 2.103-8.5c.782-5.507 1.648-8.5 2.461-8.5.802 0 1.489-2.252 1.906-6.25.359-3.437 1.098-6.4 1.643-6.583.544-.184.99-1.421.99-2.75 0-1.33.45-2.417 1-2.417s1-1.575 1-3.5.428-3.5.95-3.5c.523 0 1.256-2.7 1.63-6 .435-3.847 1.137-6 1.955-6 .774 0 1.548-1.969 1.965-5 .378-2.75 1.095-5 1.594-5 .498 0 .906-1.575.906-3.5s.45-3.5 1-3.5 1-1.125 1-2.5.406-2.5.902-2.5 1.215-2.7 1.598-6c.468-4.032 1.14-6 2.049-6 .91 0 1.573-1.96 2.031-6 .373-3.3 1.07-6 1.549-6 .479 0 .871-1.125.871-2.5s.45-2.5 1-2.5 1-1.35 1-3 .45-3 1-3 1-.866 1-1.924c0-1.058.51-4.134 1.134-6.835 1.024-4.435 1.552-5.098 5.446-6.826 2.372-1.053 4.52-2.703 4.773-3.665.253-.963 1.401-1.75 2.553-1.75s2.094-.45 2.094-1 1.125-1 2.5-1 2.5-.45 2.5-1c0-.558 2.711-1 6.133-1 4.702 0 6.51.429 7.75 1.84.889 1.012 2.854 2.146 4.367 2.519 1.513.374 2.75 1.239 2.75 1.923 0 1.174 2.396 2.829 6.193 4.276.931.355 1.979 1.95 2.329 3.544.35 1.594 1.051 2.898 1.557 2.898.507 0 .921 1.125.921 2.5s.45 2.5 1 2.5 1 1.125 1 2.5.428 2.5.95 2.5c.523 0 1.256 2.7 1.63 6 .423 3.743 1.145 6 1.918 6 1.24 0 2.47 5.064 2.491 10.25.006 1.512.461 2.75 1.011 2.75.55 0 1 .9 1 2s.45 2 1 2 1 1.125 1 2.5.45 2.5 1 2.5.997 1.012.993 2.25c-.016 5.703 2.432 17.75 3.608 17.75.771 0 1.52 2.12 1.942 5.5.378 3.025 1.086 5.5 1.572 5.5.487 0 .885 1.35.885 3 0 1.901.511 3 1.397 3 .991 0 1.747 2.466 2.603 8.5.807 5.683 1.637 8.5 2.505 8.5.843 0 1.543 2.105 1.995 6 .383 3.3 1.102 6 1.598 6s.902 1.125.902 2.5.45 2.5 1 2.5 1 1.35 1 3 .398 3 .885 3c.486 0 1.194 2.475 1.572 5.5.436 3.491 1.161 5.5 1.986 5.5.845 0 1.536 2.095 1.977 6 .374 3.3 1.107 6 1.63 6 .522 0 .95 1.35.95 3s.45 3 1 3 1 1.313 1 2.917c0 1.604.427 3.066.95 3.25.522.183 1.481 4.496 2.131 9.583.78 6.115 1.605 9.25 2.433 9.25 1.456 0 2.453 3.125 2.472 7.75.008 1.788.464 3.25 1.014 3.25s1 1.35 1 3c0 1.84.518 3 1.339 3 .91 0 1.763 2.724 2.661 8.5.827 5.315 1.781 8.5 2.546 8.5.737 0 1.505 2.25 1.931 5.664.389 3.115 1.309 6.265 2.044 7 1.095 1.095 17.91 1.336 93.361 1.336h92.024l1.041-3.75c.573-2.062 1.044-4.763 1.047-6 .003-1.237.488-2.25 1.077-2.25 1.678 0 3.928-2.67 3.943-4.679.024-3.269 1.194-6.321 2.422-6.321.73 0 1.716-3.153 2.503-8 .818-5.038 1.762-8 2.548-8 .713 0 1.493-1.816 1.817-4.228.312-2.326 1.046-4.389 1.631-4.584.586-.195 1.065-1.667 1.065-3.271 0-1.604.45-2.917 1-2.917s1-1.125 1-2.5.428-2.5.95-2.5c.523 0 1.256-2.7 1.63-6 .423-3.743 1.145-6 1.918-6 1.24 0 2.47-5.064 2.491-10.25.006-1.512.409-2.75.895-2.75.485 0 1.196-2.925 1.579-6.5.459-4.285 1.136-6.5 1.987-6.5.846 0 1.522-2.155 1.959-6.25 1.5-14.045 1.849-15.75 3.22-15.75.995 0 1.371-1.507 1.371-5.5 0-3.025.412-5.5.916-5.5.503 0 1.236-4.95 1.628-11 .492-7.587 1.091-11 1.931-11 1.469 0 2.525-16.722 2.525-40.001 0-22.094-1.012-36.999-2.513-36.999-1.19 0-2.46-7.05-2.478-13.75-.005-1.788-.459-3.25-1.009-3.25-.55 0-1-1.35-1-3 0-1.82-.52-3-1.322-3-.912 0-1.727-2.948-2.626-9.5-.863-6.284-1.731-9.5-2.565-9.5-.727 0-1.545-1.904-1.935-4.5-.371-2.475-1.039-4.5-1.485-4.5-.446 0-1.099-1.8-1.451-4-.386-2.417-1.184-4-2.014-4-.863 0-1.626-1.676-2.05-4.5-.371-2.475-1.097-4.5-1.613-4.5-.517 0-.939-.735-.939-1.633s-.828-2.36-1.84-3.25c-1.012-.889-2.146-2.855-2.519-4.367-.374-1.512-1.247-2.75-1.942-2.75-.694 0-1.86-2.025-2.591-4.5-.731-2.475-1.905-4.5-2.61-4.5-.705 0-1.564-1.125-1.909-2.5s-1.069-2.5-1.608-2.5c-.54 0-.981-.675-.981-1.5s-.686-1.5-1.525-1.5c-.838 0-1.952-1.125-2.475-2.5-.523-1.375-1.637-2.5-2.475-2.5-.866 0-1.525-.878-1.525-2.031 0-1.118-.658-2.284-1.462-2.593-.804-.308-1.734-1.419-2.067-2.468-.333-1.05-1.025-1.908-1.538-1.908-1.161 0-4.933-3.701-4.933-4.839 0-1.004-4.485-3.161-6.572-3.161-.813 0-1.905-1.125-2.428-2.5-.523-1.375-1.637-2.5-2.475-2.5-.839 0-1.525-.45-1.525-1s-.675-1-1.5-1-1.5-.45-1.5-1-.675-1-1.5-1-1.5-.42-1.5-.933c0-.513-.9-1.218-2-1.567s-2-1.208-2-1.908c0-.728-2.357-1.801-5.5-2.505-3.259-.729-5.5-1.767-5.5-2.547 0-.725-1.64-1.625-3.644-2.001-2.004-.376-4.286-1.326-5.071-2.111-.785-.786-2.746-1.428-4.356-1.428-1.611 0-2.929-.45-2.929-1s-.9-1-2-1-2-.428-2-.95c0-.523-2.7-1.256-6-1.63-3.718-.42-6-1.147-6-1.91 0-1.358-4.975-2.134-20.25-3.157-7.195-.482-9.75-1.007-9.75-2.003 0-1.097-4.682-1.35-25-1.35-21.556 0-25 .207-25 1.5M730 477.929c0 .589-.617 1.071-1.371 1.071-.965 0-1.575 2.073-2.06 7-.38 3.85-1.113 7-1.63 7-.516 0-.939 1.125-.939 2.5s-.45 2.5-1 2.5-1 1.35-1 3-.398 3-.885 3c-.486 0-1.194 2.475-1.572 5.5-.415 3.324-1.175 5.5-1.921 5.5-.788 0-1.715 3.25-2.567 9-.929 6.27-1.747 9-2.694 9-.846 0-1.361 1.137-1.361 3 0 1.65-.418 3-.928 3s-1.237 2.475-1.615 5.5c-.418 3.34-1.174 5.5-1.927 5.5-.799 0-1.699 3.2-2.53 9-.71 4.95-1.675 9-2.145 9s-.855 1.125-.855 2.5-.45 2.5-1 2.5-1 1.35-1 3-.398 3-.885 3c-.486 0-1.194 2.475-1.572 5.5-.445 3.565-1.155 5.5-2.017 5.5-.881 0-1.564 2.024-2.026 6-.383 3.3-1.102 6-1.598 6s-.902 1.8-.902 4-.45 4-1 4-1 1.087-1 2.417c0 1.329-.472 2.574-1.048 2.766-.577.192-1.315 2.929-1.64 6.083-.382 3.705-1.048 5.734-1.88 5.734-.811 0-1.542 2.035-1.975 5.5-.378 3.025-1.086 5.5-1.572 5.5-.487 0-.885 1.35-.885 3s-.45 3-1 3-1 1.125-1 2.5-.392 2.5-.871 2.5-1.176 2.7-1.549 6c-.456 4.028-1.122 6-2.026 6-.929 0-1.722 2.637-2.554 8.5-.664 4.675-1.61 8.5-2.103 8.5-.493 0-.897 1.35-.897 3s-.45 3-1 3-1 1.35-1 3-.428 3-.95 3c-.523 0-1.256 2.7-1.63 6-.441 3.905-1.132 6-1.977 6-.825 0-1.55 2.009-1.986 5.5-.378 3.025-1.086 5.5-1.572 5.5-.487 0-.885 1.35-.885 3s-.45 3-1 3-1 1.125-1 2.5-.406 2.5-.902 2.5-1.215 2.7-1.598 6c-.443 3.821-1.158 6-1.967 6-1.266 0-2.501 5.019-2.522 10.25-.006 1.513-.461 2.75-1.011 2.75-.55 0-1 1.125-1 2.5s-.45 2.5-1 2.5-1 1.575-1 3.5-.408 3.5-.906 3.5c-.499 0-1.216 2.25-1.594 5-.454 3.303-1.165 5-2.094 5-.875 0-1.406 1.062-1.406 2.811 0 1.547-.9 3.778-2 4.959-1.1 1.18-2 2.607-2 3.169 0 .563-1.125 1.305-2.5 1.65s-2.5 1.029-2.5 1.519c0 .491-.9.892-2 .892s-2 .45-2 1-.9 1-2 1-2 .45-2 1c0 .578-3.167 1-7.5 1s-7.5-.422-7.5-1c0-.55-1.251-1-2.779-1-1.615 0-3.372-.823-4.194-1.963-.779-1.08-2.636-2.231-4.128-2.559-1.75-.385-2.923-1.438-3.308-2.97-.327-1.306-1.495-2.66-2.593-3.009-1.399-.444-1.998-1.513-1.998-3.566 0-1.613-.392-2.933-.871-2.933s-1.181-3.15-1.56-7c-.476-4.828-1.105-7-2.025-7-.944 0-1.544-2.347-2.044-8-.389-4.4-1.111-8-1.604-8-.493 0-.896-1.8-.896-4s-.45-4-1-4-1-2.025-1-4.5-.392-4.5-.871-4.5-1.171-2.812-1.538-6.25c-1.464-13.706-1.869-15.75-3.116-15.75-.858 0-1.495-2.582-1.975-8-.389-4.4-1.111-8-1.604-8-.493 0-.896-1.8-.896-4s-.45-4-1-4-1-1.575-1-3.5-.45-3.5-1-3.5-1-1.287-1-2.86c0-5.863-1.296-12.14-2.507-12.14-.836 0-1.462-2.905-1.939-9-.387-4.95-1.12-9-1.629-9-.509 0-.925-1.35-.925-3s-.45-3-1-3-1-2.025-1-4.5-.419-4.5-.931-4.5-1.246-3.6-1.629-8c-.485-5.555-1.097-8-2.003-8-.717 0-1.492-1.237-1.721-2.75l-.416-2.75-.15 2.75c-.083 1.513-.6 2.75-1.15 2.75-.55 0-1 1.8-1 4s-.45 4-1 4-1 .9-1 2-.364 2-.81 2c-.445 0-1.409 4.725-2.143 10.5-.897 7.063-1.746 10.5-2.592 10.5-.794 0-1.516 2.215-1.955 6-.383 3.3-1.102 6-1.598 6s-.902 1.8-.902 4c0 2.703-.44 4-1.358 4-.952 0-1.725 2.689-2.588 9-.849 6.215-1.642 9-2.562 9-.902 0-1.558 2.1-2.029 6.5-.383 3.575-1.094 6.5-1.579 6.5-.486 0-.884 1.8-.884 4s-.45 4-1 4-1 1.575-1 3.5-.408 3.5-.906 3.5c-.499 0-1.216 2.25-1.594 5-.442 3.214-1.174 5-2.049 5-.76 0-1.647 1.528-2.011 3.466-.402 2.148-1.371 3.695-2.545 4.067-1.042.331-1.899 1.134-1.903 1.784-.012 1.919-5.046 3.814-11.694 4.401-4.554.403-6.317.978-6.634 2.165-.368 1.378-.449 1.358-.548-.133-.091-1.375-1.027-1.749-4.366-1.745-5.316.006-13.75-2.936-13.75-4.796 0-.768-.923-1.638-2.051-1.933-1.259-.329-2.274-1.649-2.628-3.419-.388-1.942-1.35-3.077-2.949-3.478-1.416-.356-2.372-1.334-2.372-2.428 0-1.008-.45-2.111-1-2.451-.55-.34-1-1.491-1-2.559s-.626-1.941-1.392-1.941c-.765 0-1.674-1.125-2.019-2.5-.345-1.375-1.069-2.5-1.608-2.5-.54 0-.981-.675-.981-1.5s-.45-1.5-1-1.5-1-.675-1-1.5-.441-1.5-.981-1.5c-.539 0-1.263-1.125-1.608-2.5-.345-1.375-1.205-2.5-1.911-2.5s-1.566-1.125-1.911-2.5-1.069-2.5-1.608-2.5c-.54 0-.981-.645-.981-1.433s-.9-1.718-2-2.067c-1.1-.349-2-1.478-2-2.508 0-1.031-.45-2.152-1-2.492-.55-.34-1-1.491-1-2.559 0-1.073-.682-1.941-1.525-1.941-.896 0-1.774-1.243-2.128-3.013-.414-2.07-1.345-3.199-2.975-3.608-1.416-.356-2.372-1.334-2.372-2.428 0-1.008-.45-2.111-1-2.451-.55-.34-1-1.439-1-2.442 0-1.004-.9-2.06-2-2.348-1.197-.313-2-1.364-2-2.616 0-1.152-.45-2.094-1-2.094s-1-.675-1-1.5-.45-1.5-1-1.5-1-.675-1-1.5-.441-1.5-.981-1.5c-.539 0-1.263-1.125-1.608-2.5-.345-1.375-1.254-2.5-2.019-2.5-.766 0-1.392-.675-1.392-1.5 0-1.327-17.722-1.5-153.5-1.5-96.81 0-153.5.353-153.5.955 0 .525-1.575 1.25-3.5 1.611-2.077.39-3.5 1.242-3.5 2.097 0 .793-1.35 1.912-3 2.487-1.65.575-3 1.719-3 2.541 0 .823-.852 1.719-1.893 1.991-2.462.644-3.107 4.134-3.107 16.818 0 11.733.718 16.5 2.485 16.5.679 0 2.08 1.125 3.112 2.5 1.033 1.375 2.398 2.5 3.033 2.5.636 0 1.415.675 1.732 1.5.316.825 1.489 1.5 2.607 1.5 1.117 0 2.031.623 2.031 1.383 0 .761 1.013 1.655 2.25 1.987 1.237.331 47.7.615 103.25.63 55.55.015 101.987.292 103.193.615 1.331.357 2.426 1.651 2.787 3.292.326 1.488 1.477 3.341 2.557 4.12 1.08.778 1.963 1.942 1.963 2.587 0 .645.675 1.431 1.5 1.748.825.316 1.5 1.437 1.5 2.49 0 1.053.852 2.138 1.894 2.41 1.121.293 2.173 1.769 2.579 3.617.377 1.716 1.132 3.121 1.678 3.121 1.604 0 3.7 2.558 4.408 5.379.362 1.442 1.323 2.621 2.136 2.621.813 0 1.989 1.351 2.612 3.002.623 1.652 1.934 3.257 2.913 3.568.979.311 1.78 1.204 1.78 1.986 0 1.871 3.1 5.444 4.722 5.444.703 0 1.278.914 1.278 2.031 0 1.118.675 2.291 1.5 2.607.825.317 1.5 1.203 1.5 1.969s.45 1.393 1 1.393 1 .445 1 .989c0 1.324 3.209 5.011 4.362 5.011 1.317 0 3.569 3.211 3.606 5.142.018.902 1.103 1.91 2.413 2.239 1.309.328 2.617 1.502 2.906 2.608.289 1.106 1.254 2.011 2.144 2.011 1.009 0 1.852 1.163 2.236 3.086.34 1.697 1.228 3.32 1.975 3.607.747.287 1.358 1.075 1.358 1.753 0 .678 1.777 2.092 3.95 3.143 2.477 1.199 4.178 2.814 4.562 4.333.337 1.332 2.16 3.839 4.05 5.571 1.891 1.732 3.438 3.627 3.438 4.211 0 .585.933 1.307 2.074 1.605 1.141.298 2.319 1.476 2.617 2.617.298 1.141 1.165 2.074 1.926 2.074.76 0 2.283.9 3.383 2s2.378 2 2.839 2c.462 0 1.353 1.125 1.979 2.5.627 1.375 1.599 2.5 2.161 2.5.561 0 1.021.603 1.021 1.339 0 .737 1.125 1.853 2.5 2.479 1.375.627 2.5 1.824 2.5 2.661 0 .836.486 1.521 1.079 1.521s3.104 2.025 5.579 4.5c2.475 2.475 5.087 4.5 5.804 4.5.718 0 1.549.933 1.847 2.074.298 1.141 1.476 2.319 2.617 2.617 1.141.298 2.074.94 2.074 1.426 0 1.123 3.726 4.883 4.839 4.883.462 0 1.353 1.125 1.979 2.5.627 1.375 1.599 2.5 2.161 2.5.561 0 1.021.62 1.021 1.379 0 1.235 1.874 2.268 7.25 3.996.962.309 1.75 1.251 1.75 2.094 0 .842.43 1.531.955 1.531 1.176 0 6.045 4.776 6.045 5.929 0 .461.9 1.073 2 1.361 1.1.287 2 1.184 2 1.991 0 .842 1.32 1.733 3.092 2.087 1.934.387 3.288 1.37 3.617 2.625.288 1.104 1.039 2.007 1.669 2.007.629 0 2.259 1.35 3.622 3s3.222 3 4.132 3c.91 0 1.913.675 2.23 1.5.316.825 1.212 1.5 1.99 1.5s1.651.903 1.939 2.007c.329 1.255 1.683 2.238 3.617 2.625 1.772.354 3.092 1.245 3.092 2.087 0 .807.885 1.7 1.967 1.983 1.082.282 2.237 1.365 2.567 2.406.331 1.041 1.264 1.892 2.075 1.892.811 0 2.441.9 3.621 2 1.181 1.1 2.737 2 3.459 2 .721 0 1.311.62 1.311 1.379 0 .758 1.35 1.938 3 2.621s3 1.874 3 2.646c0 .772 1.35 1.674 3 2.004 1.65.33 3 .925 3 1.322 0 1.518 3.813 5.028 5.461 5.028.949 0 1.946.84 2.214 1.867.283 1.08 2.14 2.412 4.407 3.16 2.155.711 3.918 1.907 3.918 2.658 0 .751 1.389 1.643 3.086 1.982 1.895.379 3.501 1.527 4.161 2.975.591 1.297 1.672 2.358 2.402 2.358 1.795 0 5.351 3.138 5.351 4.722 0 .703.654 1.278 1.453 1.278 2.441 0 6.547 2.246 6.547 3.581 0 .693 1.35 1.557 3 1.919 1.65.362 3 1.073 3 1.579 0 .507.675.921 1.5.921s1.5.441 1.5.981c0 .539 1.125 1.263 2.5 1.608 1.375.345 2.5.977 2.5 1.403 0 .426.9 1.01 2 1.298 1.1.287 2 1.168 2 1.956 0 .789 1.8 2.028 4 2.754s4 1.887 4 2.581c0 .693 1.263 1.537 2.806 1.876 1.543.339 3.442 1.5 4.221 2.58.778 1.08 1.99 1.963 2.694 1.963.703 0 1.279.414 1.279.921 0 .506 1.35 1.217 3 1.579 1.65.362 3 1.244 3 1.958 0 1.225 2.637 2.601 7.75 4.042 1.237.349 2.25 1.291 2.25 2.092 0 .817 1.307 1.719 2.97 2.052 1.674.335 3.231 1.415 3.568 2.475.328 1.035 1.466 1.881 2.529 1.881s1.933.42 1.933.933c0 .513.9 1.218 2 1.567s2 1.221 2 1.937c0 .717 2.025 1.87 4.5 2.563 2.475.693 4.5 1.767 4.5 2.386 0 .62 1.826 1.697 4.058 2.393 4.781 1.493 11.942.103 11.942-2.318 0-.803.788-1.475 1.75-1.493 2.161-.039 5.25-2.291 5.25-3.828 0-.627.914-1.14 2.031-1.14 1.118 0 2.291-.675 2.607-1.5.317-.825 1.223-1.5 2.014-1.5.792 0 2.564-1.125 3.939-2.5s3.102-2.5 3.838-2.5c.736 0 1.549-.809 1.808-1.798.277-1.061 2.168-2.307 4.617-3.04 2.442-.732 4.146-1.852 4.146-2.727 0-.85 1.283-1.742 3-2.085 1.65-.33 3-.925 3-1.322 0-1.518 3.813-5.028 5.461-5.028.949 0 1.932-.788 2.184-1.75.458-1.752 4.605-4.25 7.054-4.25.716 0 1.301-.45 1.301-1 0-1.471 3.783-5 5.36-5 .748 0 2.184-1.098 3.192-2.44 1.008-1.342 2.871-2.7 4.14-3.019 1.269-.318 2.308-1.136 2.308-1.816 0-.68 1.35-1.834 3-2.565 1.65-.73 3-1.965 3-2.744 0-.779.914-1.416 2.031-1.416 1.118 0 2.291-.675 2.607-1.5.317-.825 1.173-1.5 1.902-1.5.729 0 1.617-.918 1.973-2.041.39-1.229 1.841-2.28 3.646-2.641 1.833-.366 3.326-1.463 3.843-2.822.464-1.222 1.779-2.467 2.921-2.766 1.142-.298 2.077-1.26 2.077-2.136 0-1.037.881-1.594 2.521-1.594 1.72 0 2.884-.796 3.661-2.5.626-1.375 1.517-2.5 1.979-2.5 1.173 0 4.839-3.788 4.839-5 0-.55.585-1 1.301-1 2.267 0 6.683-2.452 6.691-3.715.004-.668 1.021-1.755 2.258-2.416s3.375-2.392 4.75-3.847c1.375-1.454 3.288-2.941 4.25-3.302.962-.361 1.75-1.338 1.75-2.17 0-.831 1.158-1.802 2.573-2.158 1.415-.355 2.979-1.713 3.475-3.019.496-1.305 1.558-2.373 2.36-2.373.801 0 1.743-.9 2.092-2s.986-2 1.414-2c.429 0 1.818-.9 3.086-2 1.268-1.1 3.137-2 4.153-2 1.016 0 1.847-.685 1.847-1.521 0-.837 1.125-2.034 2.5-2.661 1.375-.626 2.5-1.742 2.5-2.479 0-.736.46-1.339 1.021-1.339.562 0 1.534-1.125 2.161-2.5.626-1.375 1.517-2.5 1.979-2.5 1.048 0 4.839-3.731 4.839-4.763 0-.764 2.963-2.57 6.25-3.81.962-.363 1.75-1.093 1.75-1.623 0-1.321 8.584-9.804 9.921-9.804.593 0 1.079-.685 1.079-1.521 0-.837 1.125-2.034 2.5-2.661 1.375-.626 2.5-1.496 2.5-1.933 0-1.121 4.894-5.885 6.045-5.885.525 0 .955-.914.955-2.031 0-1.118.675-2.291 1.5-2.607.825-.317 1.5-1.15 1.5-1.852 0-.702.933-1.521 2.074-1.819 1.141-.298 2.319-1.476 2.617-2.617.298-1.141.975-2.074 1.505-2.074 1.464 0 9.804-8.656 9.804-10.177 0-.734 1.35-1.932 3-2.663 1.65-.73 3-1.935 3-2.676 0-.742.879-1.628 1.954-1.97 1.075-.341 2.516-2.171 3.201-4.067.686-1.896 1.831-3.447 2.546-3.447.714 0 1.299-.698 1.299-1.551s1.515-2.184 3.367-2.958c2.474-1.034 3.527-2.212 3.975-4.449.344-1.72 1.242-3.042 2.066-3.042.801 0 1.736-.877 2.076-1.949.34-1.072 1.495-2.227 2.567-2.567 1.072-.34 1.949-1.44 1.949-2.444s.675-2.085 1.5-2.402c.825-.316 1.5-1.264 1.5-2.107 0-.842.689-1.531 1.531-1.531.843 0 1.828-.788 2.189-1.75s1.872-2.896 3.356-4.296c1.484-1.4 2.865-3.425 3.067-4.5.203-1.075 1.354-2.388 2.558-2.918 1.204-.529 2.461-2.046 2.794-3.37.661-2.636 2.794-5.166 4.354-5.166.546 0 1.301-1.405 1.678-3.121.407-1.856 1.457-3.324 2.59-3.62 1.048-.274 2.17-1.553 2.493-2.843.324-1.289 1.444-2.616 2.489-2.948 1.046-.331 1.901-1.28 1.901-2.107 0-.827.675-2.179 1.5-3.004.825-.825 1.5-2.315 1.5-3.312 0-.996.9-2.047 2-2.335 1.17-.306 2-1.364 2-2.549 0-1.148.867-2.301 2-2.661 1.1-.349 2-1.279 2-2.067 0-.788.432-1.433.96-1.433s1.488-1.763 2.134-3.918c.767-2.561 1.907-4.116 3.29-4.487 1.164-.312 44.641-.58 96.616-.595 51.975-.015 95.513-.299 96.75-.63 1.237-.332 2.25-1.226 2.25-1.987 0-.76.91-1.383 2.021-1.383 1.186 0 2.493-1.033 3.161-2.5.626-1.375 1.512-2.5 1.967-2.5 1.623 0 4.851-3.475 4.851-5.222 0-.978.616-1.778 1.369-1.778 2.302 0 3.338-10.566 1.995-20.36-.403-2.942-1.135-4.64-2-4.64-.75 0-1.364-.914-1.364-2.031 0-1.118-.675-2.291-1.5-2.607-.825-.317-1.5-1.15-1.5-1.852 0-.702-.933-1.521-2.074-1.819-1.141-.298-2.307-1.434-2.592-2.523-.339-1.294-1.699-2.202-3.926-2.619-1.874-.352-3.408-1.058-3.408-1.57 0-.569-67.441-1.037-173.667-1.205-137.849-.217-173.752-.532-174.083-1.524-.229-.687-1.054-1.25-1.833-1.25-.779 0-1.417-.401-1.417-.892 0-.49-1.125-1.174-2.5-1.519-1.553-.389-2.5-1.336-2.5-2.5 0-1.156-.943-2.109-2.467-2.491-2.082-.523-2.57-1.399-3.129-5.609-.381-2.872-1.175-4.989-1.872-4.989-.748 0-1.715-3.245-2.532-8.5-.727-4.675-1.7-8.5-2.161-8.5-.462 0-.839-1.35-.839-3s-.45-3-1-3-1-1.125-1-2.5-.406-2.5-.902-2.5-1.215-2.7-1.598-6c-.448-3.864-1.155-6-1.983-6-.81 0-1.541-2.039-1.974-5.5-.378-3.025-1.105-5.5-1.615-5.5s-.928-1.125-.928-2.5-.45-2.5-1-2.5-1-1.575-1-3.5-.408-3.5-.906-3.5c-.499 0-1.216-2.25-1.594-5-.454-3.303-1.165-5-2.094-5-.773 0-1.406-.961-1.406-2.135 0-5.118-2.408-14.865-3.673-14.865-.85 0-1.327-1.258-1.327-3.5 0-1.925-.408-3.5-.906-3.5-.499 0-1.216-2.25-1.594-5-.454-3.303-1.165-5-2.094-5-.86 0-1.406-1.045-1.406-2.69 0-4.068-2.29-14.31-3.2-14.31-.44 0-.8-1.8-.8-4s-.45-4-1-4-1-1.157-1-2.571c0-1.415-.675-3.247-1.5-4.072-.825-.825-1.5-1.018-1.5-.428" fill="undefined" fill-rule="evenodd"/></svg>